<?xml version="1.0" encoding="utf-8"?>
<!-- Generator: Adobe Illustrator 22.1.0, SVG Export Plug-In . SVG Version: 6.00 Build 0)  -->
<svg version="1.1" id="Capa_1" xmlns="http://www.w3.org/2000/svg" xmlns:xlink="http://www.w3.org/1999/xlink" x="0px" y="0px"
	 width="566.4px" height="304.1px" viewBox="0 0 566.4 304.1" style="enable-background:new 0 0 566.4 304.1;" xml:space="preserve"
	>
<style type="text/css">
	.st0{fill:#0085CA;}
	.st1{fill:#EE9D2E;}
</style>
<g id="LOGOTIPO_CUAD">
	<g>
		<path d="M17.3,253.5l-0.5,0.8c-1.4,2.2-3.5,3.4-6.2,3.4c-2.4,0-4.3-1.1-5.7-3.3s-2.1-5.3-2.1-9.2v-6c0-4.3,0.6-7.4,1.9-9.6
			c1.3-2.1,3.2-3.2,5.7-3.2c2.1,0,3.8,0.8,5,2.4s1.9,3.9,2,6.9h-2.8c-0.1-1.9-0.5-3.4-1.2-4.4c-0.7-1.1-1.7-1.6-3-1.6
			c-1.6,0-2.8,0.7-3.6,2.1s-1.1,3.7-1.2,6.8v6.2c0,3.1,0.4,5.4,1.3,7s2.1,2.5,3.7,2.5c1.5,0,2.7-0.5,3.5-1.5l0.4-0.5v-7h-4.1V242
			h6.9V253.5L17.3,253.5z"/>
		<path d="M28.1,238.2c-0.4-0.1-0.8-0.1-1.2-0.1c-1.4,0-2.4,1-2.9,3.1v16.1h-2.7v-22.6H24v2.3c0.7-1.8,1.8-2.7,3.1-2.7
			c0.4,0,0.8,0.1,1.1,0.3L28.1,238.2z"/>
		<path d="M39.1,255.3c-0.9,1.6-2.2,2.4-4,2.4c-1.5,0-2.7-0.7-3.4-2.1c-0.8-1.4-1.2-3.5-1.2-6.2v-14.7h2.7v14.4
			c0,3.5,0.8,5.3,2.3,5.3c1.7,0,2.8-1,3.4-3v-16.7h2.7v22.6H39L39.1,255.3z"/>
		<path d="M57.6,247.1c0,3.6-0.5,6.2-1.4,8c-0.9,1.8-2.3,2.6-4,2.6s-3-0.9-3.9-2.6v10.8h-2.7v-31.3h2.5l0.1,2.5
			c0.9-1.9,2.2-2.9,3.9-2.9c1.8,0,3.2,0.9,4.1,2.6c0.9,1.7,1.4,4.3,1.4,7.7L57.6,247.1L57.6,247.1z M54.9,245c0-2.5-0.3-4.4-0.9-5.6
			c-0.6-1.2-1.5-1.8-2.8-1.8s-2.3,0.9-3,2.6v11.7c0.7,1.7,1.7,2.6,3,2.6c1.2,0,2.1-0.6,2.7-1.8s0.9-3,0.9-5.5L54.9,245L54.9,245z"/>
		<path d="M60.2,244.9c0-3.3,0.6-5.9,1.8-7.8s2.7-2.9,4.7-2.9c1.9,0,3.5,0.9,4.7,2.8s1.8,4.4,1.8,7.6v2.4c0,3.3-0.6,5.9-1.8,7.8
			c-1.2,1.9-2.7,2.9-4.7,2.9c-1.9,0-3.5-0.9-4.7-2.8c-1.2-1.9-1.8-4.4-1.8-7.5C60.2,247.4,60.2,244.9,60.2,244.9z M63,247.1
			c0,2.3,0.3,4.1,1,5.5c0.7,1.3,1.6,2,2.7,2c2.4,0,3.7-2.4,3.7-7.1V245c0-2.3-0.3-4.1-1-5.5c-0.7-1.3-1.6-2-2.7-2s-2,0.7-2.7,2
			s-1,3.2-1,5.5C63,245,63,247.1,63,247.1z"/>
		<path d="M82.7,245c0-3.5,0.5-6.1,1.4-7.9c1-1.8,2.3-2.7,4.1-2.7c1.6,0,2.8,0.9,3.7,2.6v-11.7h2.7v32h-2.5l-0.1-2.4
			c-0.9,1.9-2.2,2.8-3.8,2.8c-1.7,0-3.1-0.9-4.1-2.7s-1.5-4.4-1.5-7.7V245H82.7z M85.5,247.1c0,2.5,0.3,4.4,0.8,5.6
			c0.6,1.2,1.5,1.8,2.7,1.8c1.4,0,2.4-0.9,3-2.8v-11.4c-0.7-1.8-1.7-2.7-3-2.7s-2.2,0.6-2.7,1.8c-0.6,1.2-0.8,3-0.9,5.5L85.5,247.1
			L85.5,247.1z"/>
		<path d="M104.7,257.7c-2.1,0-3.7-0.8-4.8-2.5c-1.1-1.7-1.7-4.1-1.7-7.4v-2.7c0-3.4,0.5-6,1.6-7.9s2.6-2.9,4.6-2.9s3.4,0.8,4.4,2.5
			s1.5,4.3,1.5,7.9v2.4h-9.4v0.5c0,2.4,0.3,4.2,1,5.3s1.6,1.6,2.9,1.6c0.8,0,1.5-0.2,2.1-0.6s1.2-1.1,1.7-2l1.4,2.3
			C108.9,256.6,107.1,257.7,104.7,257.7z M104.4,237.4c-1.1,0-2,0.5-2.5,1.6s-0.9,2.7-0.9,4.9h6.6v-0.5c-0.1-2.1-0.4-3.7-0.9-4.6
			C106.1,237.9,105.4,237.4,104.4,237.4z"/>
		<path d="M131,249.3h-7.6l-1.7,7.9h-2.9l7.2-30.4h2.4l7.3,30.4h-2.9L131,249.3z M124.1,246h6.1l-3.1-13.8L124.1,246z"/>
		<path d="M150.1,247.1c0,3.6-0.5,6.2-1.4,8c-1,1.8-2.3,2.6-4,2.6s-3-0.9-3.9-2.6v10.8h-2.7v-31.3h2.5l0.1,2.5
			c0.9-1.9,2.2-2.9,3.9-2.9c1.8,0,3.2,0.9,4.1,2.6s1.4,4.3,1.4,7.7L150.1,247.1L150.1,247.1z M147.4,245c0-2.5-0.3-4.4-0.9-5.6
			s-1.5-1.8-2.8-1.8s-2.3,0.9-3,2.6v11.7c0.7,1.7,1.7,2.6,3,2.6c1.2,0,2.1-0.6,2.7-1.8s0.9-3,0.9-5.5L147.4,245L147.4,245z"/>
		<path d="M156.3,257.3h-2.7v-32h2.7V257.3z"/>
		<path d="M163.4,228.7c0,0.6-0.1,1.1-0.4,1.6c-0.3,0.4-0.6,0.6-1.2,0.6c-0.5,0-0.9-0.2-1.2-0.6s-0.4-0.9-0.4-1.6
			c0-0.6,0.1-1.2,0.4-1.6s0.6-0.6,1.2-0.6c0.5,0,0.9,0.2,1.2,0.7C163.3,227.6,163.4,228.1,163.4,228.7z M163.2,257.3h-2.7v-22.6h2.7
			V257.3z"/>
		<path d="M173,254.5c0.9,0,1.6-0.4,2.2-1.1c0.5-0.8,0.8-1.8,0.9-3.2h2.6c-0.1,2.2-0.6,4-1.7,5.4c-1.1,1.4-2.4,2.1-3.9,2.1
			c-2.1,0-3.6-0.9-4.7-2.6c-1.1-1.7-1.6-4.4-1.6-7.9v-2.5c0-3.4,0.5-6,1.6-7.8s2.7-2.7,4.7-2.7c1.7,0,3.1,0.7,4.1,2.2s1.5,3.5,1.6,6
			h-2.6c-0.1-1.7-0.4-2.9-0.9-3.8c-0.5-0.8-1.3-1.3-2.2-1.3c-1.2,0-2.1,0.5-2.7,1.6s-0.9,2.8-0.9,5.3v2.9c0,2.7,0.3,4.5,0.9,5.6
			C170.8,254,171.8,254.5,173,254.5z"/>
		<path d="M190.1,257.3c-0.2-0.5-0.3-1.3-0.4-2.5c-1,1.9-2.2,2.9-3.7,2.9s-2.7-0.6-3.5-1.7c-0.9-1.1-1.3-2.8-1.3-4.9
			c0-2.3,0.6-4.1,1.7-5.5c1.2-1.3,2.7-2,4.7-2.1h2v-2.4c0-1.3-0.2-2.3-0.7-2.9c-0.4-0.6-1.1-0.9-2-0.9c-0.8,0-1.5,0.3-2,1
			s-0.8,1.5-0.8,2.5h-2.7c0-1.2,0.3-2.3,0.8-3.3s1.2-1.9,2-2.5c0.9-0.6,1.8-0.9,2.9-0.9c1.7,0,3,0.6,3.9,1.7s1.3,2.8,1.4,5v11.4
			c0,1.7,0.2,3.2,0.5,4.5v0.3h-2.8L190.1,257.3L190.1,257.3z M186.5,254.3c0.7,0,1.3-0.3,1.9-0.8s1.1-1.1,1.3-1.9v-5.3h-1.5
			c-1.3,0-2.3,0.4-3.1,1.2s-1.1,1.8-1.1,3.2c0,1.3,0.2,2.2,0.6,2.8C184.9,254,185.6,254.3,186.5,254.3z"/>
		<path d="M202.2,254.5c0.9,0,1.6-0.4,2.2-1.1c0.5-0.8,0.8-1.8,0.9-3.2h2.6c-0.1,2.2-0.6,4-1.7,5.4c-1.1,1.4-2.4,2.1-3.9,2.1
			c-2.1,0-3.7-0.9-4.7-2.6c-1-1.7-1.6-4.4-1.6-7.9v-2.5c0-3.4,0.5-6,1.6-7.8s2.7-2.7,4.7-2.7c1.7,0,3.1,0.7,4.1,2.2s1.5,3.5,1.6,6
			h-2.6c-0.1-1.7-0.4-2.9-0.9-3.8c-0.5-0.8-1.3-1.3-2.2-1.3c-1.2,0-2.1,0.5-2.7,1.6s-0.9,2.8-0.9,5.3v2.9c0,2.7,0.3,4.5,0.9,5.6
			S200.9,254.5,202.2,254.5z"/>
		<path d="M213.8,228.7c0,0.6-0.1,1.1-0.4,1.6s-0.6,0.6-1.2,0.6c-0.5,0-0.9-0.2-1.2-0.6c-0.3-0.4-0.4-0.9-0.4-1.6
			c0-0.6,0.1-1.2,0.4-1.6s0.6-0.6,1.2-0.6c0.5,0,0.9,0.2,1.2,0.7C213.7,227.6,213.8,228.1,213.8,228.7z M213.6,257.3h-2.7v-22.6h2.7
			V257.3z"/>
		<path d="M217,244.9c0-3.3,0.6-5.9,1.8-7.8s2.7-2.9,4.7-2.9s3.5,0.9,4.7,2.8s1.8,4.4,1.8,7.6v2.4c0,3.3-0.6,5.9-1.8,7.8
			s-2.7,2.9-4.7,2.9c-1.9,0-3.5-0.9-4.7-2.8c-1.2-1.8-1.8-4.4-1.8-7.5V244.9z M219.7,247.1c0,2.3,0.3,4.1,1,5.5c0.7,1.3,1.6,2,2.7,2
			c2.4,0,3.7-2.4,3.7-7.1V245c0-2.3-0.3-4.1-1-5.5c-0.7-1.3-1.6-2-2.7-2s-2,0.7-2.7,2s-1,3.2-1,5.5V247.1z"/>
		<path d="M235.7,234.7l0.1,2.4c1.1-1.9,2.4-2.9,4.1-2.9c3,0,4.5,2.7,4.5,8v15h-2.7v-14.8c0-1.8-0.2-3-0.7-3.8
			c-0.4-0.7-1.1-1.1-2-1.1c-0.7,0-1.3,0.3-1.8,0.9s-1,1.4-1.3,2.4v16.5h-2.7v-22.6L235.7,234.7L235.7,234.7z"/>
		<path d="M254.1,257.7c-2.1,0-3.7-0.8-4.8-2.5c-1.1-1.7-1.7-4.1-1.7-7.4v-2.7c0-3.4,0.5-6,1.6-7.9s2.6-2.9,4.6-2.9s3.4,0.8,4.4,2.5
			s1.5,4.3,1.5,7.9v2.4h-9.3v0.5c0,2.4,0.3,4.2,1,5.3s1.6,1.6,2.9,1.6c0.8,0,1.5-0.2,2.1-0.6c0.6-0.4,1.2-1.1,1.7-2l1.4,2.3
			C258.4,256.6,256.6,257.7,254.1,257.7z M253.8,237.4c-1.1,0-2,0.5-2.5,1.6c-0.5,1-0.9,2.7-0.9,4.9h6.6v-0.5
			c-0.1-2.1-0.4-3.7-0.9-4.6S254.8,237.4,253.8,237.4z"/>
		<path d="M270.8,251.5c0-0.8-0.2-1.5-0.7-2c-0.4-0.6-1.3-1.2-2.6-2c-1.5-0.8-2.5-1.5-3.1-2.1s-1.1-1.2-1.4-2
			c-0.3-0.7-0.4-1.6-0.4-2.7c0-1.8,0.5-3.4,1.5-4.6s2.3-1.8,3.8-1.8c1.6,0,2.9,0.6,3.9,1.9s1.5,2.9,1.5,4.9h-2.7
			c0-1-0.3-1.9-0.8-2.6s-1.1-1.1-1.9-1.1s-1.4,0.3-1.9,0.8c-0.5,0.6-0.7,1.3-0.7,2.3c0,0.7,0.2,1.4,0.5,1.8c0.3,0.5,1.1,1.1,2.4,1.8
			c2,1.1,3.4,2.1,4.1,3.1s1.1,2.3,1.1,3.9c0,2-0.5,3.5-1.5,4.7s-2.3,1.8-4,1.8s-3.2-0.7-4.2-2c-1.1-1.3-1.6-3.1-1.6-5.1h2.8
			c0,1.3,0.3,2.2,0.8,2.9s1.3,1.1,2.3,1.1c0.9,0,1.6-0.3,2.1-0.8S270.8,252.4,270.8,251.5z"/>
		<path d="M283.1,245c0-3.5,0.5-6.1,1.4-7.9c1-1.8,2.3-2.7,4.1-2.7c1.6,0,2.8,0.9,3.7,2.6v-11.7h2.7v32h-2.5l-0.1-2.4
			c-0.9,1.9-2.2,2.8-3.8,2.8c-1.7,0-3.1-0.9-4.1-2.7s-1.5-4.4-1.5-7.7L283.1,245L283.1,245z M285.9,247.1c0,2.5,0.3,4.4,0.8,5.6
			c0.6,1.2,1.5,1.8,2.7,1.8c1.4,0,2.4-0.9,3-2.8v-11.4c-0.7-1.8-1.7-2.7-3-2.7s-2.2,0.6-2.7,1.8c-0.6,1.2-0.8,3-0.9,5.5v2.2
			L285.9,247.1L285.9,247.1z"/>
		<path d="M305.1,257.7c-2.1,0-3.7-0.8-4.8-2.5c-1.1-1.7-1.7-4.1-1.7-7.4v-2.7c0-3.4,0.5-6,1.6-7.9s2.6-2.9,4.6-2.9s3.4,0.8,4.4,2.5
			s1.5,4.3,1.5,7.9v2.4h-9.3v0.5c0,2.4,0.3,4.2,1,5.3s1.6,1.6,2.9,1.6c0.8,0,1.5-0.2,2.1-0.6s1.2-1.1,1.7-2l1.4,2.3
			C309.3,256.6,307.5,257.7,305.1,257.7z M304.7,237.4c-1.1,0-2,0.5-2.5,1.6s-0.9,2.7-0.9,4.9h6.6v-0.5c-0.1-2.1-0.4-3.7-0.9-4.6
			S305.8,237.4,304.7,237.4z"/>
		<path d="M316.5,257.3h-2.7v-32h2.7V257.3z"/>
		<path d="M330.7,245.4v11.9h-2.8v-30.4h7.2c2.1,0,3.7,0.8,4.9,2.5c1.2,1.7,1.8,3.9,1.8,6.7c0,2.9-0.6,5.2-1.7,6.8s-2.7,2.4-4.8,2.5
			H330.7z M330.7,242.1h4.3c1.3,0,2.2-0.5,2.9-1.5s1-2.5,1-4.4c0-1.8-0.3-3.3-1-4.4s-1.6-1.7-2.8-1.7h-4.4V242.1z"/>
		<path d="M351.6,238.2c-0.4-0.1-0.8-0.1-1.2-0.1c-1.4,0-2.4,1-2.9,3.1v16.1h-2.7v-22.6h2.7v2.3c0.7-1.8,1.8-2.7,3.1-2.7
			c0.4,0,0.8,0.1,1.1,0.3L351.6,238.2z"/>
		<path d="M353.1,244.9c0-3.3,0.6-5.9,1.8-7.8c1.2-1.9,2.7-2.9,4.7-2.9c1.9,0,3.5,0.9,4.7,2.8s1.8,4.4,1.8,7.6v2.4
			c0,3.3-0.6,5.9-1.8,7.8c-1.2,1.9-2.7,2.9-4.7,2.9c-1.9,0-3.5-0.9-4.7-2.8c-1.2-1.9-1.8-4.4-1.8-7.5V244.9z M355.8,247.1
			c0,2.3,0.3,4.1,1,5.5c0.7,1.3,1.6,2,2.7,2c2.4,0,3.7-2.4,3.7-7.1V245c0-2.3-0.3-4.1-1-5.5c-0.7-1.3-1.6-2-2.7-2s-2,0.7-2.7,2
			s-1,3.2-1,5.5V247.1z"/>
		<path d="M375.1,254.5c0.9,0,1.6-0.4,2.2-1.1c0.5-0.8,0.8-1.8,0.9-3.2h2.6c-0.1,2.2-0.6,4-1.7,5.4c-1.1,1.4-2.4,2.1-3.9,2.1
			c-2.1,0-3.6-0.9-4.7-2.6c-1.1-1.7-1.6-4.4-1.6-7.9v-2.5c0-3.4,0.5-6,1.6-7.8s2.7-2.7,4.7-2.7c1.7,0,3.1,0.7,4.1,2.2s1.5,3.5,1.6,6
			h-2.6c-0.1-1.7-0.4-2.9-0.9-3.8c-0.5-0.8-1.3-1.3-2.2-1.3c-1.2,0-2.1,0.5-2.7,1.6s-0.9,2.8-0.9,5.3v2.9c0,2.7,0.3,4.5,0.9,5.6
			C372.9,254,373.8,254.5,375.1,254.5z"/>
		<path d="M389.5,257.7c-2.1,0-3.7-0.8-4.8-2.5c-1.1-1.7-1.7-4.1-1.7-7.4v-2.7c0-3.4,0.5-6,1.6-7.9s2.6-2.9,4.6-2.9s3.4,0.8,4.4,2.5
			s1.5,4.3,1.5,7.9v2.4h-9.3v0.5c0,2.4,0.3,4.2,1,5.3s1.6,1.6,2.9,1.6c0.8,0,1.5-0.2,2.1-0.6s1.2-1.1,1.7-2l1.4,2.3
			C393.8,256.6,392,257.7,389.5,257.7z M389.2,237.4c-1.1,0-2,0.5-2.5,1.6s-0.9,2.7-0.9,4.9h6.6v-0.5c-0.1-2.1-0.4-3.7-0.9-4.6
			C391,237.9,390.2,237.4,389.2,237.4z"/>
		<path d="M406.2,251.5c0-0.8-0.2-1.5-0.7-2c-0.4-0.6-1.3-1.2-2.6-2c-1.5-0.8-2.5-1.5-3.1-2.1s-1.1-1.2-1.4-2
			c-0.3-0.7-0.4-1.6-0.4-2.7c0-1.8,0.5-3.4,1.5-4.6s2.3-1.8,3.8-1.8c1.6,0,2.9,0.6,3.9,1.9s1.5,2.9,1.5,4.9H406c0-1-0.3-1.9-0.8-2.6
			s-1.1-1.1-1.9-1.1s-1.4,0.3-1.9,0.8c-0.5,0.6-0.7,1.3-0.7,2.3c0,0.7,0.2,1.4,0.5,1.8c0.3,0.5,1.1,1.1,2.4,1.8
			c2,1.1,3.4,2.1,4.1,3.1s1.1,2.3,1.1,3.9c0,2-0.5,3.5-1.5,4.7s-2.3,1.8-4,1.8s-3.2-0.7-4.2-2c-1.1-1.3-1.6-3.1-1.6-5.1h2.8
			c0,1.3,0.3,2.2,0.8,2.9s1.3,1.1,2.3,1.1c0.9,0,1.6-0.3,2.1-0.8S406.2,252.4,406.2,251.5z"/>
		<path d="M420.8,257.3c-0.2-0.5-0.3-1.3-0.4-2.5c-1,1.9-2.2,2.9-3.7,2.9s-2.7-0.6-3.5-1.7c-0.9-1.1-1.3-2.8-1.3-4.9
			c0-2.3,0.6-4.1,1.7-5.5c1.2-1.3,2.7-2,4.7-2.1h2v-2.4c0-1.3-0.2-2.3-0.7-2.9c-0.4-0.6-1.1-0.9-2-0.9c-0.8,0-1.5,0.3-2,1
			s-0.8,1.5-0.8,2.5h-2.7c0-1.2,0.3-2.3,0.8-3.3s1.2-1.9,2-2.5c0.9-0.6,1.8-0.9,2.9-0.9c1.7,0,3,0.6,3.9,1.7s1.3,2.8,1.4,5v11.4
			c0,1.7,0.2,3.2,0.5,4.5v0.3h-2.8V257.3z M417.1,254.3c0.7,0,1.3-0.3,1.9-0.8s1.1-1.1,1.3-1.9v-5.3h-1.5c-1.3,0-2.3,0.4-3.1,1.2
			c-0.8,0.8-1.1,1.8-1.1,3.2c0,1.3,0.2,2.2,0.6,2.8C415.6,254,416.2,254.3,417.1,254.3z"/>
		<path d="M426.4,245c0-3.5,0.5-6.1,1.4-7.9c1-1.8,2.3-2.7,4.1-2.7c1.6,0,2.8,0.9,3.7,2.6v-11.7h2.7v32h-2.5l-0.1-2.4
			c-0.9,1.9-2.2,2.8-3.8,2.8c-1.7,0-3.1-0.9-4.1-2.7s-1.5-4.4-1.5-7.7L426.4,245L426.4,245z M429.2,247.1c0,2.5,0.3,4.4,0.8,5.6
			c0.6,1.2,1.5,1.8,2.7,1.8c1.4,0,2.4-0.9,3-2.8v-11.4c-0.7-1.8-1.7-2.7-3-2.7s-2.2,0.6-2.7,1.8c-0.6,1.2-0.8,3-0.9,5.5v2.2
			L429.2,247.1L429.2,247.1z"/>
		<path d="M441.8,244.9c0-3.3,0.6-5.9,1.8-7.8s2.7-2.9,4.7-2.9c1.9,0,3.5,0.9,4.7,2.8s1.8,4.4,1.8,7.6v2.4c0,3.3-0.6,5.9-1.8,7.8
			c-1.2,1.9-2.7,2.9-4.7,2.9c-1.9,0-3.5-0.9-4.7-2.8c-1.2-1.8-1.8-4.4-1.8-7.5V244.9z M444.5,247.1c0,2.3,0.3,4.1,1,5.5
			c0.7,1.3,1.6,2,2.7,2c2.4,0,3.7-2.4,3.7-7.1V245c0-2.3-0.3-4.1-1-5.5c-0.7-1.3-1.6-2-2.7-2s-2,0.7-2.7,2s-1,3.2-1,5.5V247.1z"/>
		<path d="M464.3,245c0-3.5,0.5-6.1,1.4-7.9c1-1.8,2.3-2.7,4.1-2.7c1.6,0,2.8,0.9,3.7,2.6v-11.7h2.7v32h-2.3l-0.1-2.4
			c-0.9,1.9-2.2,2.8-3.8,2.8c-1.7,0-3.1-0.9-4.1-2.7s-1.5-4.4-1.5-7.7V245H464.3z M467,247.1c0,2.5,0.3,4.4,0.8,5.6
			c0.6,1.2,1.5,1.8,2.7,1.8c1.4,0,2.4-0.9,3-2.8v-11.4c-0.7-1.8-1.7-2.7-3-2.7s-2.2,0.6-2.7,1.8c-0.6,1.2-0.8,3-0.9,5.5v2.2
			L467,247.1L467,247.1z"/>
		<path d="M486.2,257.7c-2.1,0-3.7-0.8-4.8-2.5c-1.1-1.7-1.7-4.1-1.7-7.4v-2.7c0-3.4,0.5-6,1.6-7.9s2.6-2.9,4.6-2.9s3.4,0.8,4.4,2.5
			s1.5,4.3,1.5,7.9v2.4h-9.3v0.5c0,2.4,0.3,4.2,1,5.3s1.6,1.6,2.9,1.6c0.8,0,1.5-0.2,2.1-0.6s1.2-1.1,1.7-2l1.4,2.3
			C490.5,256.6,488.7,257.7,486.2,257.7z M485.9,237.4c-1.1,0-2,0.5-2.5,1.6s-0.9,2.7-0.9,4.9h6.6v-0.5c-0.1-2.1-0.4-3.7-0.9-4.6
			C487.7,237.9,487,237.4,485.9,237.4z"/>
		<path d="M511.9,249.6c0-1.5-0.3-2.7-0.9-3.5s-1.7-1.6-3.3-2.4s-2.8-1.6-3.6-2.4s-1.5-1.8-1.9-2.9s-0.6-2.3-0.6-3.7
			c0-2.4,0.6-4.4,1.8-5.9c1.2-1.6,2.7-2.3,4.7-2.3c1.3,0,2.5,0.4,3.5,1.2c1,0.8,1.8,1.9,2.4,3.3s0.8,3,0.8,4.7h-2.9
			c0-1.9-0.3-3.3-1-4.4c-0.7-1-1.6-1.5-2.9-1.5c-1.1,0-2,0.4-2.7,1.3c-0.6,0.9-0.9,2.1-0.9,3.6c0,1.3,0.3,2.4,1,3.2
			c0.7,0.9,1.7,1.6,3.2,2.3c2.2,1,3.8,2.2,4.8,3.7c1,1.4,1.4,3.3,1.4,5.7c0,2.5-0.6,4.4-1.8,5.9s-2.8,2.2-4.8,2.2
			c-1.3,0-2.5-0.4-3.6-1.2c-1.1-0.8-2-1.9-2.6-3.3s-1-3-1-4.8h2.8c0,1.9,0.4,3.3,1.2,4.4c0.8,1,1.8,1.6,3.2,1.6
			c1.2,0,2.2-0.4,2.8-1.3C511.6,252.3,511.9,251.1,511.9,249.6z"/>
		<path d="M523.8,257.7c-2.1,0-3.7-0.8-4.8-2.5c-1.1-1.7-1.7-4.1-1.7-7.4v-2.7c0-3.4,0.5-6,1.6-7.9s2.6-2.9,4.6-2.9s3.4,0.8,4.4,2.5
			s1.5,4.3,1.5,7.9v2.4h-9.3v0.5c0,2.4,0.3,4.2,1,5.3s1.6,1.6,2.9,1.6c0.8,0,1.5-0.2,2.1-0.6s1.2-1.1,1.7-2l1.4,2.3
			C528,256.6,526.2,257.7,523.8,257.7z M523.5,237.4c-1.1,0-2,0.5-2.5,1.6s-0.9,2.7-0.9,4.9h6.6v-0.5c-0.1-2.1-0.4-3.7-0.9-4.6
			C525.2,237.9,524.5,237.4,523.5,237.4z"/>
		<path d="M534.9,234.7l0.1,2.4c1.1-1.9,2.4-2.9,4.1-2.9c3,0,4.5,2.7,4.5,8v15h-2.7v-14.8c0-1.8-0.2-3-0.7-3.8s-1.1-1.1-2-1.1
			c-0.7,0-1.3,0.3-1.8,0.9s-1,1.4-1.3,2.4v16.5h-2.7v-22.6L534.9,234.7L534.9,234.7z M542.6,225.9c0,1.5-0.3,2.7-0.8,3.6
			c-0.5,1-1.2,1.4-2.1,1.4c-0.4,0-0.7-0.1-0.9-0.2c-0.3-0.1-0.6-0.4-1-0.9c-0.4-0.4-0.7-0.7-0.9-0.8s-0.4-0.1-0.6-0.1
			c-0.3,0-0.6,0.2-0.9,0.7c-0.2,0.4-0.3,1-0.3,1.7l-1.8-0.1c0-1.5,0.3-2.8,0.8-3.7c0.5-1,1.2-1.4,2-1.4c0.3,0,0.6,0.1,0.8,0.2
			c0.2,0.2,0.6,0.4,0.9,0.8s0.7,0.6,0.9,0.8c0.2,0.1,0.5,0.2,0.8,0.2s0.6-0.2,0.9-0.7c0.2-0.5,0.4-1,0.4-1.7L542.6,225.9z"/>
		<path d="M555.9,257.3c-0.2-0.5-0.3-1.3-0.4-2.5c-1,1.9-2.2,2.9-3.7,2.9s-2.7-0.6-3.5-1.7c-0.9-1.1-1.3-2.8-1.3-4.9
			c0-2.3,0.6-4.1,1.7-5.5c1.2-1.3,2.7-2,4.7-2.1h2v-2.4c0-1.3-0.2-2.3-0.7-2.9c-0.4-0.6-1.1-0.9-2-0.9c-0.8,0-1.5,0.3-2,1
			s-0.8,1.5-0.8,2.5h-2.7c0-1.2,0.3-2.3,0.8-3.3s1.2-1.9,2-2.5c0.9-0.6,1.8-0.9,2.9-0.9c1.7,0,3,0.6,3.9,1.7s1.3,2.8,1.4,5v11.4
			c0,1.7,0.2,3.2,0.5,4.5v0.3h-2.8L555.9,257.3L555.9,257.3z M552.2,254.3c0.7,0,1.3-0.3,1.9-0.8s1.1-1.1,1.3-1.9v-5.3h-1.5
			c-1.3,0-2.3,0.4-3.1,1.2s-1.1,1.8-1.1,3.2c0,1.3,0.2,2.2,0.6,2.8C550.7,254,551.3,254.3,552.2,254.3z"/>
		<path d="M565.1,257.3h-2.7v-32h2.7V257.3z"/>
		<path d="M86.4,273.1v21.6c0,2.9-0.6,5.2-1.8,6.8s-2.8,2.4-4.9,2.4c-2.2,0-3.8-0.8-5-2.4s-1.7-3.9-1.7-6.9v-21.5h1.8v21.4
			c0,4.8,1.6,7.2,4.9,7.2c3.2,0,4.9-2.3,4.9-7v-21.6H86.4z"/>
		<path d="M93,280.9v3.6c0.5-1.2,1.1-2.2,1.9-2.9c0.8-0.7,1.6-1.1,2.6-1.1c2.9,0,4.4,2.6,4.5,7.9v15.1h-1.7v-14.9
			c0-2-0.3-3.5-0.8-4.5s-1.3-1.4-2.4-1.4c-0.9,0-1.7,0.5-2.4,1.4c-0.7,0.9-1.3,2.2-1.6,3.7v15.7h-1.7v-22.6L93,280.9L93,280.9z"/>
		<path d="M106.9,274.4c0-0.5,0.1-0.9,0.3-1.2s0.5-0.5,0.8-0.5s0.6,0.2,0.8,0.5s0.3,0.7,0.3,1.2s-0.1,0.9-0.3,1.2
			c-0.2,0.3-0.5,0.5-0.8,0.5s-0.6-0.2-0.8-0.5C107,275.3,106.9,274.9,106.9,274.4z M108.9,303.5h-1.7v-22.6h1.7V303.5z"/>
		<path d="M118.4,299.9l4.1-18.9h1.8l-5.2,22.6h-1.4l-5.2-22.6h1.8L118.4,299.9z"/>
		<path d="M133.1,303.9c-2,0-3.5-0.9-4.6-2.6s-1.7-4.2-1.7-7.4v-2.8c0-3.3,0.5-5.9,1.6-7.8s2.5-2.8,4.4-2.8c1.8,0,3.2,0.8,4.1,2.4
			c0.9,1.6,1.4,4,1.5,7.3v2.2h-9.9v1.3c0,2.6,0.4,4.6,1.2,6s2,2.1,3.5,2.1c1.6,0,3-0.8,4-2.4l0.9,1.5
			C137,302.9,135.3,303.9,133.1,303.9z M132.8,282.7c-1.3,0-2.4,0.6-3.1,1.9s-1.1,3.2-1.2,5.6h8.2v-0.6
			C136.6,285,135.3,282.7,132.8,282.7z"/>
		<path d="M148.9,283.1c-0.4-0.1-0.8-0.1-1.1-0.1c-0.9,0-1.7,0.4-2.4,1.3c-0.6,0.9-1.1,2.1-1.4,3.7v15.6h-1.7V281h1.7v3.4
			c0.8-2.5,2.1-3.8,3.8-3.8c0.5,0,0.8,0.1,1,0.3L148.9,283.1z"/>
		<path d="M160.7,297.9c0-1-0.3-1.8-0.9-2.5s-1.6-1.5-3-2.4s-2.4-1.6-3-2.2s-1-1.2-1.3-1.9c-0.3-0.7-0.4-1.5-0.4-2.4
			c0-1.7,0.5-3.2,1.4-4.3s2.1-1.7,3.6-1.7c1.6,0,2.9,0.6,3.8,1.8c0.9,1.2,1.4,2.8,1.4,4.8h-1.7c0-1.3-0.3-2.3-1-3.2
			c-0.6-0.8-1.5-1.3-2.5-1.3s-1.8,0.3-2.4,1s-0.9,1.6-0.9,2.7c0,0.9,0.2,1.6,0.7,2.2s1.4,1.3,2.9,2.3c1.6,0.9,2.6,1.7,3.2,2.3
			c0.6,0.6,1,1.3,1.3,2s0.4,1.6,0.4,2.6c0,1.9-0.5,3.3-1.4,4.4s-2.2,1.6-3.8,1.6c-1.7,0-3-0.6-4-1.8c-1-1.2-1.5-2.8-1.5-4.7h1.7
			c0.1,1.4,0.4,2.5,1,3.2c0.6,0.8,1.6,1.2,2.8,1.2c1.1,0,1.9-0.3,2.5-1C160.4,300,160.7,299.1,160.7,297.9z"/>
		<path d="M166.7,274.4c0-0.5,0.1-0.9,0.3-1.2c0.2-0.3,0.5-0.5,0.8-0.5s0.6,0.2,0.8,0.5s0.3,0.7,0.3,1.2s-0.1,0.9-0.3,1.2
			c-0.2,0.3-0.5,0.5-0.8,0.5s-0.6-0.2-0.8-0.5C166.8,275.3,166.7,274.9,166.7,274.4z M168.7,303.5H167v-22.6h1.7V303.5z"/>
		<path d="M173.2,291.2c0-3.5,0.5-6.2,1.4-8s2.3-2.7,4.1-2.7c1.9,0,3.3,1.1,4.2,3.4v-12.5h1.7v32H183l-0.1-2.9
			c-0.9,2.2-2.4,3.3-4.3,3.3c-1.8,0-3.1-0.9-4-2.7s-1.4-4.4-1.4-7.7V291.2L173.2,291.2z M174.9,293.3c0,2.9,0.3,5,1,6.4
			c0.6,1.4,1.7,2,3.1,2c1.8,0,3.1-1.2,3.9-3.5v-11.7c-0.8-2.5-2.1-3.8-3.9-3.8c-1.4,0-2.4,0.7-3.1,2c-0.6,1.3-1,3.4-1,6.3V293.3z"/>
		<path d="M198.4,303.5c-0.2-0.7-0.3-1.8-0.3-3.1c-0.5,1.1-1.2,2-2,2.6s-1.7,0.9-2.6,0.9c-1.4,0-2.6-0.5-3.4-1.6
			c-0.8-1.1-1.2-2.7-1.2-4.7c0-2.2,0.6-4,1.7-5.3s2.7-1.9,4.6-2h2.9v-3.2c0-1.6-0.3-2.8-0.9-3.5s-1.5-1.1-2.6-1.1s-1.9,0.4-2.6,1.3
			c-0.7,0.8-1,1.9-1,3.2h-1.7c0-1.8,0.5-3.4,1.5-4.7s2.3-1.9,3.9-1.9c1.7,0,3,0.6,3.8,1.7c0.9,1.1,1.3,2.8,1.3,5v11.2
			c0,2.2,0.1,3.9,0.4,5v0.3L198.4,303.5L198.4,303.5z M193.7,301.7c1,0,1.9-0.4,2.7-1.1s1.3-1.7,1.7-2.8v-5.5h-2.7
			c-1.6,0-2.7,0.5-3.5,1.4s-1.2,2.1-1.2,3.7C190.6,300.3,191.7,301.7,193.7,301.7z"/>
		<path d="M204.2,291.2c0-3.5,0.5-6.2,1.4-8s2.3-2.7,4.1-2.7c1.9,0,3.3,1.1,4.3,3.4v-12.5h1.7v32h-1.6l-0.1-2.9
			c-0.9,2.2-2.4,3.3-4.3,3.3c-1.8,0-3.1-0.9-4-2.7s-1.4-4.4-1.4-7.7L204.2,291.2L204.2,291.2L204.2,291.2z M206,293.3
			c0,2.9,0.3,5,1,6.4s1.7,2,3.1,2c1.8,0,3.1-1.2,3.9-3.5v-11.7c-0.8-2.5-2.1-3.8-3.9-3.8c-1.4,0-2.4,0.7-3.1,2c-0.6,1.3-1,3.4-1,6.3
			V293.3z"/>
		<path d="M230.2,291.2v12.4h-1.8v-30.4h6.5c2,0,3.6,0.8,4.7,2.4c1.1,1.6,1.7,3.8,1.7,6.7s-0.6,5.1-1.7,6.6s-2.7,2.3-4.8,2.3H230.2z
			 M230.2,288.9h4.8c1.5,0,2.6-0.6,3.4-1.7c0.8-1.2,1.2-2.8,1.2-4.9s-0.4-3.8-1.2-5s-2-1.8-3.4-1.8h-4.8V288.9z"/>
		<path d="M244.6,291.1c0-3.3,0.5-5.8,1.6-7.7s2.6-2.8,4.5-2.8s3.4,0.9,4.5,2.8s1.6,4.4,1.6,7.7v2.4c0,3.3-0.5,5.9-1.6,7.7
			c-1.1,1.8-2.6,2.8-4.4,2.8c-1.9,0-3.3-0.9-4.4-2.7s-1.7-4.3-1.7-7.5v-2.7L244.6,291.1L244.6,291.1z M246.4,293.4
			c0,2.6,0.4,4.6,1.2,6.1s1.9,2.2,3.2,2.2c1.4,0,2.5-0.7,3.2-2.1s1.1-3.5,1.1-6.1v-2.4c0-2.6-0.4-4.6-1.2-6.1s-1.9-2.2-3.2-2.2
			s-2.4,0.7-3.2,2.2s-1.2,3.5-1.2,6L246.4,293.4L246.4,293.4z"/>
		<path d="M263.1,303.5h-1.7v-32h1.7V303.5z"/>
		<path d="M268.1,274.4c0-0.5,0.1-0.9,0.3-1.2c0.2-0.3,0.5-0.5,0.8-0.5c0.4,0,0.6,0.2,0.8,0.5c0.2,0.3,0.3,0.7,0.3,1.2
			s-0.1,0.9-0.3,1.2c-0.2,0.3-0.5,0.5-0.8,0.5c-0.4,0-0.6-0.2-0.8-0.5C268.2,275.3,268.1,274.9,268.1,274.4z M270.1,303.5h-1.7
			v-22.6h1.7V303.5z"/>
		<path d="M277.8,275.2v5.8h2.9v2.1h-2.9v15c0,1.2,0.1,2.2,0.4,2.8c0.3,0.6,0.7,0.9,1.4,0.9c0.3,0,0.7-0.1,1.2-0.2v2.1
			c-0.4,0.2-1,0.4-1.7,0.4c-2,0-3-1.9-3.1-5.6v-15.3h-2.6v-2.1h2.6v-5.8L277.8,275.2L277.8,275.2z"/>
		<path d="M290.2,303.9c-2,0-3.5-0.9-4.6-2.6s-1.7-4.2-1.7-7.4v-2.8c0-3.3,0.5-5.9,1.6-7.8s2.5-2.8,4.4-2.8c1.8,0,3.2,0.8,4.1,2.4
			s1.4,4,1.5,7.3v2.2h-9.9v1.3c0,2.6,0.4,4.6,1.2,6c0.8,1.4,2,2.1,3.5,2.1c1.6,0,3-0.8,4-2.4l0.9,1.5
			C294.1,302.9,292.4,303.9,290.2,303.9z M289.9,282.7c-1.3,0-2.4,0.6-3.1,1.9s-1.1,3.2-1.2,5.6h8.2v-0.6
			C293.7,285,292.4,282.7,289.9,282.7z M291.9,271.7h2.2l-3.6,5.8h-1.6L291.9,271.7z"/>
		<path d="M304.8,301.7c1.2,0,2.1-0.5,2.8-1.4c0.7-0.9,1-2.2,1-3.9h1.7c-0.1,2.3-0.6,4.1-1.6,5.4s-2.3,2-3.8,2c-2,0-3.5-0.9-4.5-2.6
			s-1.5-4.3-1.6-7.6v-2.8c0-3.4,0.5-6,1.5-7.8s2.5-2.6,4.5-2.6c1.7,0,3,0.7,3.9,2.1c1,1.4,1.5,3.4,1.5,5.9h-1.7
			c-0.1-1.9-0.4-3.3-1.1-4.3s-1.6-1.5-2.8-1.5c-1.5,0-2.6,0.7-3.3,2s-1,3.4-1,6.2v2.6c0,2.9,0.4,5,1.1,6.3
			C302.2,301.1,303.3,301.7,304.8,301.7z"/>
		<path d="M315.9,280.9v3.6c0.5-1.2,1.1-2.2,1.9-2.9c0.8-0.7,1.6-1.1,2.6-1.1c2.9,0,4.4,2.6,4.5,7.9v15.1h-1.7v-14.9
			c0-2-0.3-3.5-0.8-4.5s-1.3-1.4-2.4-1.4c-0.9,0-1.7,0.5-2.4,1.4c-0.7,0.9-1.3,2.2-1.6,3.7v15.7h-1.7v-22.6L315.9,280.9L315.9,280.9
			z"/>
		<path d="M329.8,274.4c0-0.5,0.1-0.9,0.3-1.2c0.2-0.3,0.5-0.5,0.8-0.5c0.4,0,0.6,0.2,0.8,0.5c0.2,0.3,0.3,0.7,0.3,1.2
			s-0.1,0.9-0.3,1.2c-0.2,0.3-0.5,0.5-0.8,0.5c-0.4,0-0.6-0.2-0.8-0.5C329.9,275.3,329.8,274.9,329.8,274.4z M331.7,303.5H330v-22.6
			h1.7V303.5z"/>
		<path d="M342.1,301.7c1.2,0,2.1-0.5,2.8-1.4c0.7-0.9,1-2.2,1-3.9h1.7c-0.1,2.3-0.6,4.1-1.6,5.4s-2.3,2-3.8,2c-2,0-3.5-0.9-4.5-2.6
			s-1.5-4.3-1.6-7.6v-2.8c0-3.4,0.5-6,1.5-7.8s2.5-2.6,4.5-2.6c1.7,0,3,0.7,3.9,2.1c1,1.4,1.5,3.4,1.5,5.9h-1.6
			c-0.1-1.9-0.4-3.3-1.1-4.3s-1.6-1.5-2.8-1.5c-1.5,0-2.6,0.7-3.3,2s-1,3.4-1,6.2v2.6c0,2.9,0.4,5,1.1,6.3
			C339.5,301.1,340.6,301.7,342.1,301.7z"/>
		<path d="M360.4,303.5c-0.2-0.7-0.3-1.8-0.3-3.1c-0.5,1.1-1.2,2-2,2.6s-1.7,0.9-2.6,0.9c-1.4,0-2.6-0.5-3.4-1.6s-1.2-2.7-1.2-4.7
			c0-2.2,0.6-4,1.7-5.3s2.7-1.9,4.6-2h2.9v-3.2c0-1.6-0.3-2.8-0.9-3.5s-1.5-1.1-2.6-1.1s-1.9,0.4-2.6,1.3c-0.7,0.8-1,1.9-1,3.2h-1.7
			c0-1.8,0.5-3.4,1.5-4.7s2.3-1.9,3.9-1.9c1.7,0,3,0.6,3.8,1.7s1.3,2.8,1.3,5v11.2c0,2.2,0.1,3.9,0.4,5v0.3L360.4,303.5L360.4,303.5
			z M355.7,301.7c1,0,1.9-0.4,2.7-1.1c0.8-0.7,1.3-1.7,1.7-2.8v-5.5h-2.7c-1.6,0-2.7,0.5-3.5,1.4s-1.2,2.1-1.2,3.7
			C352.6,300.3,353.6,301.7,355.7,301.7z"/>
		<path d="M373.6,291.2c0-3.5,0.5-6.2,1.4-8s2.3-2.7,4.1-2.7c1.9,0,3.3,1.1,4.3,3.4v-12.5h1.7v32h-1.6l-0.1-2.9
			c-0.9,2.2-2.4,3.3-4.3,3.3c-1.8,0-3.1-0.9-4-2.7s-1.4-4.4-1.4-7.7v-2.2L373.6,291.2L373.6,291.2z M375.4,293.3c0,2.9,0.3,5,1,6.4
			s1.7,2,3.1,2c1.8,0,3.1-1.2,3.9-3.5v-11.7c-0.8-2.5-2.1-3.8-3.9-3.8c-1.4,0-2.4,0.7-3.1,2c-0.6,1.3-1,3.4-1,6.3V293.3z"/>
		<path d="M395.5,303.9c-2,0-3.5-0.9-4.6-2.6s-1.7-4.2-1.7-7.4v-2.8c0-3.3,0.5-5.9,1.6-7.8s2.5-2.8,4.4-2.8c1.8,0,3.2,0.8,4.1,2.4
			s1.4,4,1.5,7.3v2.2h-9.9v1.3c0,2.6,0.4,4.6,1.2,6c0.8,1.4,2,2.1,3.5,2.1c1.6,0,3-0.8,4-2.4l0.9,1.5
			C399.4,302.9,397.8,303.9,395.5,303.9z M395.2,282.7c-1.3,0-2.4,0.6-3.1,1.9s-1.1,3.2-1.2,5.6h8.2v-0.6
			C399.1,285,397.8,282.7,395.2,282.7z"/>
		<path d="M415,273.1l6.8,26.7l6.8-26.7h2.3v30.4h-1.8v-13.2l0.2-13.2l-6.9,26.4H421l-6.9-26.3l0.2,13v13.2h-1.8V273L415,273.1
			L415,273.1z"/>
		<path d="M445.2,303.5c-0.2-0.7-0.3-1.8-0.3-3.1c-0.5,1.1-1.2,2-2,2.6s-1.7,0.9-2.6,0.9c-1.4,0-2.6-0.5-3.4-1.6s-1.2-2.7-1.2-4.7
			c0-2.2,0.6-4,1.7-5.3s2.7-1.9,4.6-2h2.9v-3.2c0-1.6-0.3-2.8-0.9-3.5s-1.5-1.1-2.6-1.1s-1.9,0.4-2.6,1.3c-0.7,0.8-1,1.9-1,3.2h-1.7
			c0-1.8,0.5-3.4,1.5-4.7s2.3-1.9,3.9-1.9c1.7,0,3,0.6,3.8,1.7s1.3,2.8,1.3,5v11.2c0,2.2,0.1,3.9,0.4,5v0.3L445.2,303.5L445.2,303.5
			z M440.4,301.7c1,0,1.9-0.4,2.7-1.1s1.3-1.7,1.7-2.8v-5.5h-2.7c-1.6,0-2.7,0.5-3.5,1.4s-1.2,2.1-1.2,3.7
			C437.4,300.3,438.4,301.7,440.4,301.7z"/>
		<path d="M450.9,291.2c0-3.5,0.5-6.2,1.4-8s2.3-2.7,4.1-2.7c1.9,0,3.3,1.1,4.3,3.4v-12.5h1.7v32h-1.6l-0.1-2.9
			c-0.9,2.2-2.4,3.3-4.3,3.3c-1.8,0-3.1-0.9-4-2.7s-1.4-4.4-1.4-7.7v-2.2L450.9,291.2L450.9,291.2z M452.7,293.3c0,2.9,0.3,5,1,6.4
			c0.6,1.4,1.7,2,3.1,2c1.8,0,3.1-1.2,3.9-3.5v-11.7c-0.8-2.5-2.1-3.8-3.9-3.8c-1.4,0-2.4,0.7-3.1,2c-0.6,1.3-1,3.4-1,6.3V293.3z"/>
		<path d="M473.9,283.1c-0.4-0.1-0.8-0.1-1.1-0.1c-0.9,0-1.7,0.4-2.4,1.3c-0.6,0.9-1.1,2.1-1.4,3.7v15.6h-1.7V281h1.7v3.4
			c0.8-2.5,2.1-3.8,3.8-3.8c0.5,0,0.8,0.1,1,0.3L473.9,283.1z"/>
		<path d="M477.2,274.4c0-0.5,0.1-0.9,0.3-1.2s0.5-0.5,0.8-0.5s0.6,0.2,0.8,0.5s0.3,0.7,0.3,1.2s-0.1,0.9-0.3,1.2
			c-0.2,0.3-0.5,0.5-0.8,0.5s-0.6-0.2-0.8-0.5C477.3,275.3,477.2,274.9,477.2,274.4z M479.2,303.5h-1.7v-22.6h1.7V303.5z"/>
		<path d="M483.7,291.2c0-3.5,0.5-6.2,1.4-8s2.3-2.7,4.1-2.7c1.9,0,3.3,1.1,4.3,3.4v-12.5h1.7v32h-1.6l-0.1-2.9
			c-0.9,2.2-2.4,3.3-4.3,3.3c-1.8,0-3.1-0.9-4-2.7s-1.4-4.4-1.4-7.7v-2.2L483.7,291.2L483.7,291.2z M485.4,293.3c0,2.9,0.3,5,1,6.4
			c0.6,1.4,1.7,2,3.1,2c1.8,0,3.1-1.2,3.9-3.5v-11.7c-0.8-2.5-2.1-3.8-3.9-3.8c-1.4,0-2.4,0.7-3.1,2c-0.6,1.3-1,3.4-1,6.3V293.3z"/>
	</g>
	<path id="S_LOGO" class="st0" d="M470.6,124c8.6,4.6,17.2,7.7,26.4,9.3c8.8,1.6,19.8,2.5,28.7,0.7c3.7-0.7,7.6-2.1,10.7-4
		c5.6-3.6,5.1-10.5-0.5-14c-4.6-2.9-9.9-3.7-15.2-4.5c-11.8-1.7-25.7-3.3-37-7.2c-13.9-4.7-20.8-13.5-20.5-26.8
		c0.3-13.5,8.2-22.6,21.5-27.8c14.1-5.5,28-7.5,48.5-4.5c9,1.3,17.9,3.4,26,7.5c0.8,0.4,1.5,0.9,2.3,1.4c-3.2,6.2-6.3,12.2-9.7,18.7
		c-2.1-0.9-3.8-1.6-5.5-2.3c-13.6-5.7-29.7-7.5-44.4-4.8c-3.4,0.6-6.8,2.2-9.5,4.2c-5.1,3.8-4.9,10.2,0.7,13.3
		c4.2,2.3,9.1,3.8,13.9,4.8c9,2,20.3,3.2,29.4,5c3.5,0.7,6.9,1.7,10.2,3c10.8,4.1,18.4,10.9,19.6,21.9c1.3,11.5-2.8,21.2-13.4,28.1
		c-7.6,5-14.4,7.1-23.5,8.5c-13.8,2.1-29.5,0.9-43-2c-7.4-1.6-14.4-3.8-21.1-7c-1.7-0.8-3.2-1.8-5.1-2.9
		C463.5,136.4,466.9,130.5,470.6,124z"/>
	<path id="P_LOGO_9_" class="st0" d="M391.6,44.1c-15.3,0-29.3,5.6-39.7,14.8v-12h-21.2v140.4h23.5v-44.8
		c10.1,8,23.2,12.9,37.4,12.9c32.3,0,58.5-18,58.5-55.7C450.1,62.1,423.9,44.1,391.6,44.1z M353.2,100.7c0-22.1,16.6-34.7,37.1-34.7
		c24.1,0,37.1,12.6,37.1,34.7c0,20.4-13,34.6-37.1,34.7C369.8,135.6,353.2,121.1,353.2,100.7z"/>
	<path id="GAP_8_" class="st0" d="M130.8,187.3h188.1v-23.5H130.8V187.3z"/>
	<path id="PUNTO_8_" class="st1" d="M236.7,105.1c0,6.5-5.2,11.7-11.7,11.7s-11.7-5.2-11.7-11.7s5.2-11.7,11.7-11.7
		S236.7,98.7,236.7,105.1z"/>
	<path id="ONDA_8_" class="st1" d="M295,116.9c-2.5,6.9-6.1,10.4-8.6,10.4c-2.9,0-5.8-5.5-8.7-14.3c-4-11.4-8.8-28.9-14.7-48.7
		C252.8,29.6,246.9,0,224.8,0c-22.7,0-27.8,29.6-38,64.3c-8,27.2-13.9,50.1-18.9,58.7c-1.6,2.9-3.1,4.4-4.7,4.4
		c-2.5,0-5-3.6-7.6-10.6h-24.8c0,0,0.9,3.5,1.6,5.2c6.8,18.3,14.2,30,31.6,30c22.8,0,30.1-27,40.3-61s15.2-61,20.6-61
		c5,0,10.3,27,20.6,61c10.2,34,17.7,61,40.3,61c18.1,0,24.9-11.7,31.6-30c0.6-1.7,1.5-5.2,1.5-5.2L295,116.9z"/>
	<path id="G_LOGO_4_" class="st0" d="M119.4,46.9H98.2v12c-10.4-9.2-24.4-14.8-39.7-14.8C26.2,44.1,0,62.1,0,99.8
		s26.2,55.7,58.5,55.7c14.2,0,27.3-4.8,37.4-12.8l-0.1,0.4c0.4,41-55.9,35-83.4,24.1l-4.1,17.6c26.1,11.2,74.8,14.5,95.1-4.1
		c8.5-7.8,13.2-20.3,14.7-34.6c1.1-10.4,1.2-19.7,1.3-28.3V46.9z M22.6,100.7c0-22.1,12.9-35,37.1-35c20.5,0,37.1,12.9,37.1,35
		c0,20.4-16.6,35.1-37.1,35C35.6,135.5,22.6,121.1,22.6,100.7z"/>
</g>
</svg>
